<?xml version="1.0" encoding="UTF-8"?>
<svg xmlns="http://www.w3.org/2000/svg" version="1.1" viewBox="0 0 6418 1391.8">
  <defs>
    <style>
      .cls-1 {
        fill: #fff;
      }
    </style>
  </defs>
  <!-- Generator: Adobe Illustrator 28.7.1, SVG Export Plug-In . SVG Version: 1.2.0 Build 142)  -->
  <g>
    <g id="Layer_2">
      <g id="Layer_1-2">
        <g>
          <path class="cls-1" d="M6160.6,365.7c-851.1-11.6-1675.2,147.3-2502.8,288.3,334.5-116.3,705.8-169.4,964.5-431.5C3704.5,30.5,2823.2,59.8,1969.2,405.9c-1.9-8.6-3.9-17.1-5.8-25.7,90.3-33.4,180.4-67.2,271-100.3C2706.9,107.6,3191.6-31.4,3711.5,6.2c350.2,25.3,697.8,82.1,1045.1,132.8,457.6,66.7,913.8,141.1,1370.6,212.3,10.9,1.7,21.8,3.8,33.4,14.5Z"/>
          <path class="cls-1" d="M4340.7,352.5c-34.8,16.2-68.5,34.3-104.4,48.2-358.3,138.6-737.1,206.7-1124.6,245.4-478.6,47.8-957.4,27.6-1436.6,7.4-435.7-18.4-871.5-27.3-1295.3,85.4C251.1,773.1,126.5,818.6,0,858.9c210.8-133.9,452.1-210.8,704.5-262.7,488.1-100.4,985.1-101.6,1482.8-99.6,458.6,1.8,917.5,1.6,1375.9-8.3,265.6-5.7,524.5-56.2,777.5-135.8h0Z"/>
          <path class="cls-1" d="M4257.4,921.3c-143.7-2.8-287.6-3.3-431.2.1-94.8,2.3-169.9,44.1-213.1,116.6-41.5,69.8-76.2,143.3-106.5,217.5-29.4,71.8,11.1,120.9,99.2,124.8,73.1,3.2,146.6.7,220,.7v.3c67.5,0,134.9-.4,202.4,0,108,.9,186.7-44,235-123.7,39.4-65.1,71.3-134,100.1-203.3,33.1-79.5-7.9-131.1-105.9-133h0ZM4022.6,1263.6c-90.7,4.3-181.8,2.7-272.7,1.3-61-.9-72.7-29-54.3-76.8,1.9-4.8,3.7-9.5,5.5-14,.3-.8.6-1.5.9-2.2.7-1.7,1.4-3.5,2.1-5.2.4-1,.8-1.9,1.2-2.9,1.2-2.9,2.3-5.7,3.5-8.4,1.1-2.7,2.3-5.4,3.4-8,.4-.9.8-1.7,1.1-2.6.4-.8.8-1.7,1.1-2.5.4-.8.8-1.7,1.1-2.5.8-1.7,1.5-3.3,2.3-4.9.4-.8.8-1.6,1.1-2.4.8-1.6,1.5-3.1,2.3-4.7.8-1.5,1.5-3,2.3-4.5.4-.9.9-1.7,1.4-2.5.7-1.3,1.4-2.6,2.1-3.9.4-.7.8-1.4,1.2-2.1s.8-1.4,1.2-2c.4-.7.8-1.3,1.2-2,.4-.7.9-1.5,1.3-2.2.4-.6.7-1.2,1.1-1.7.7-1.1,1.4-2.2,2.1-3.3.9-1.4,1.9-2.8,2.8-4.1.4-.6.8-1.2,1.3-1.8,1.3-1.8,2.7-3.6,4.1-5.3.4-.5.7-.9,1.1-1.4.9-1.1,1.9-2.3,2.8-3.3.4-.4.8-.9,1.2-1.3.4-.5.9-1,1.4-1.5.5-.5.9-1,1.4-1.5.5-.5.9-1,1.4-1.4.5-.5,1-1,1.5-1.4.5-.4.9-.9,1.4-1.3.5-.5,1-.9,1.5-1.3.5-.4.9-.8,1.4-1.2,1-.9,2.1-1.8,3.2-2.6.5-.4,1-.8,1.6-1.2.9-.7,1.8-1.3,2.7-2,.3-.2.6-.4.9-.7,4.5-3.2,9.3-6,14.4-8.6.5-.2.9-.5,1.4-.7,1.5-.7,3-1.4,4.5-2.1.4-.2.9-.4,1.3-.6,1-.4,2-.8,3-1.2.5-.2,1-.4,1.5-.6,2.4-.9,4.9-1.8,7.4-2.6.7-.2,1.5-.5,2.2-.7,2.2-.7,4.5-1.3,6.9-2,.8-.2,1.6-.4,2.4-.6,1-.2,2-.5,3-.7,1.1-.3,2.3-.5,3.4-.8,5.3-1.2,10.9-2.2,16.7-3.2.8-.1,1.6-.2,2.4-.4,5-.8,10.2-1.4,15.6-2,.9,0,1.7-.2,2.6-.3,1-.1,2.1-.2,3.1-.3,2.1-.2,4.2-.4,6.4-.6,3.3-.3,6.6-.5,10-.8,15.7-1.1,33.1-1.8,52.6-2.2.8,0,1.6,0,2.4,0,1.6,0,3.2,0,4.8,0,.8,0,1.6,0,2.5,0,.9,0,1.8,0,2.8,0,.9,0,1.9,0,2.8,0,1.9,0,3.7,0,5.6,0,2.8,0,5.7,0,8.6,0,1,0,1.9,0,2.9,0,2.4,0,4.7,0,7.1,0s4.9,0,7.3,0c4.9,0,9.9,0,15.1,0s.4,0,.7,0c.2,0,.4,0,.7,0,.2,0,.4,0,.6,0,1.7,0,3.4,0,5.1-.2,1.7,0,3.4-.2,5.1-.3.6,0,1.2,0,1.8,0,1.2,0,2.3-.1,3.5-.2.9,0,1.8,0,2.6-.1.9,0,1.8,0,2.6,0h0c1.2,0,2.3,0,3.5,0,1.4,0,2.7,0,4.1,0,2.5,0,5,.2,7.5.5.2,0,.4,0,.6,0,.3,0,.7,0,1,.1.3,0,.5,0,.8.1.6,0,1.2.2,1.8.3.6.1,1.2.2,1.8.4,51.2,11.5,128.4-32.8,149.9,39.7,19.1,64.6-85.9,181.4-160.9,185h0Z"/>
          <path class="cls-1" d="M5831.3,920.6c-137.8-2-275.6-1.9-413.4.3-95.2,1.5-171.9,40.8-216.2,112.3-44.2,71.3-80.2,147.3-111,223.9-28.5,70.9,14.6,120.2,102,123.5,73.2,2.7,146.6.6,210.5.6,382.6,9.5,400.4-8.8,536.4-306.9,1.1-2.4,2.2-4.7,3.2-7.1,39-93.3,1.4-144.9-111.5-146.5ZM5763,1110.7c-51.8,138.9-80.1,155.1-291.1,154.5-47,0-94.1,2-140.9-.5-53-2.9-70-25.3-52.3-72.3,49.4-131.5,81.3-153.8,238.2-153.8,64.6,0,129.2-.5,193.8,1.1,55.5,1.3,69.6,24.8,52.4,71Z"/>
          <path class="cls-1" d="M2792.1,1207.1c-20.2,10-41.5,18.4-66.1,29.2,24.1,44.7,47,87.3,77.8,144.6-70.3,0-128.2,5.3-183.7-2.5-23.7-3.3-52.6-30.9-61.2-52.8-20.6-52.9-57.4-66.7-118.6-66.1-88.6.9-171.1-10.2-208.1,91.4-9,24.8-97.2,27.9-149,40.9-7.2-8.7-14.5-17.4-21.7-26.2,31.7-64.7,60.1-131,97.5-193.2,9.7-16.2,47.1-27.3,72.1-27.9,114.4-3,228.9-1.2,343.4-1.6,26.3,0,56.2,4,78.1-5.2,31.1-13.1,56.4-36.7,84.2-55.8-30.9-12-61.3-32.7-92.9-34.2-96.6-4.6-194.7-9.5-290.2.2-121,12.3-199.4-37.8-281.6-118.3,29.7-4.1,49.9-9.2,70-9.3,190.8-.5,381.6-2.1,572.4.7,84.4,1.2,177.6-.5,212.3,89,23.6,61.1-40.7,150.4-134.6,197h0Z"/>
          <path class="cls-1" d="M5084.2,1101.3c-42.8,87.6-82.9,173.9-128.4,258-6.9,12.7-39,20.7-59.7,21-108.8,1.8-217.8,3.7-326.4-.4-183.2-7-260.7-127.8-171.6-266.4,67.6-105.2,176.7-169.6,310.9-180.5,147.7-12,297.6-2.7,463.5-2.7-71.9,55.6-119,122.6-225.7,116.4-67.3-3.9-138.9-11.7-201.9,3.3-66.2,15.7-137.2,46.2-183,88.9-55,51.2-16.5,109.8,66.1,115.6,55.5,3.9,112,4.3,167.4.3,22-1.6,42.4-19.6,63.5-30.1-3.8-8.7-7.6-17.5-11.4-26.2h-222c82.1-115.2,204.8-140.9,458.6-97.2h0Z"/>
          <path class="cls-1" d="M5733.4,579c75.9,28.8,151.8,57.6,227.6,86.4-535.1-59.3-1068.7-68-1604.7-27.5,675.2-160.4,1362-239.4,2061.6-236.4-231,41.3-467.7,61.5-682.2,153.6-.8,8-1.5,15.9-2.3,23.8h0Z"/>
          <path class="cls-1" d="M2008.4,1377.3h-585c-4.2-4.5-8.4-9-12.6-13.5,49.4-34.7,93.2-83,149.7-100.3,56.9-17.4,126.4-3.8,204.3-3.8-17.4-62.8-31.2-112.4-48.7-175.3-107.8,82.6-208.1,149.7-294.3,228.4-77.4,70.7-163.7,78.2-263.7,63,0-6.4-2.4-13.6.3-15.8,177.3-137.1,351.7-277.1,534-409,100.2-72.5,169.5-47.2,203.5,61.6,36.8,117.4,72.6,235,112.5,364.6h0Z"/>
          <path class="cls-1" d="M1127.9,1256.6c16.6,0,33.2,3,67.9,6.4-78.1,64.6-131.1,129-242.3,119.7-84.5-7.1-170.5,1.4-255.5-2.6-182.3-8.5-258.8-130.2-168.2-268.3,75.7-115.5,199.4-175.6,346.3-185.1,154.3-10,310.1-2.2,485.9-2.2-82.3,74.4-146.7,136.6-264.1,123-69.3-8-142.9-10.2-210.8,1.4-62.8,10.7-126.3,36.5-178,69.3-24.2,15.4-36.1,67.2-25.7,94.6,7.9,20.8,59,39.8,92,41.2,117.3,5,235,2,352.6,2.6h0Z"/>
          <path class="cls-1" d="M3483.5,1256.6c-82.6,69.7-136.1,132-246.1,126.3-119.7-6.2-240.2-1.4-376.2-1.4,19.6-45.6,34-82.3,51.1-118.1,40.5-84.7,82-169,123.4-253.3,50.1-101.9,55.7-104.2,205.9-78.6-49.4,105.8-98.1,210-151.9,325.1h393.7Z"/>
          <path class="cls-1" d="M3858.8,1042.6c2.1-.2,4.2-.4,6.4-.6-2.2.2-4.3.4-6.4.6Z"/>
          <path class="cls-1" d="M3927.8,1039c3.2,0,6.4-.1,9.7-.2-3.3,0-6.5.1-9.7.2Z"/>
          <path class="cls-1" d="M3948.6,1038.7c2.8,0,5.7,0,8.6,0-2.9,0-5.8,0-8.6,0Z"/>
          <path class="cls-1" d="M3989.8,1038.4c.4,0,.9,0,1.4,0-.5,0-.9,0-1.4,0-5.1,0-10.2,0-15.1,0,4.9,0,9.9,0,15.1,0Z"/>
          <path class="cls-1" d="M3991.8,1038.4c3.4,0,6.8-.2,10.2-.4-3.4.2-6.8.4-10.2.4Z"/>
          <path class="cls-1" d="M4020.1,1037.4c2.5,0,5,.2,7.5.5-2.5-.3-5-.4-7.5-.5Z"/>
        </g>
      </g>
    </g>
  </g>
</svg>